<svg width="26" height="19" viewBox="0 0 26 19" fill="none" xmlns="http://www.w3.org/2000/svg">
<path d="M14.6007 6.57022C13.499 5.74511 12.1558 5.30735 10.78 5.32495C9.0298 5.3125 7.34277 5.97857 6.07245 7.18357C4.85305 8.3857 4.10236 9.98395 3.95547 11.6907L3.89048 12.3738H3.27766C2.41097 12.3883 1.5818 12.7302 0.956411 13.3309C0.651034 13.6354 0.409214 13.9976 0.245027 14.3964C0.0808395 14.7953 -0.00243389 15.2228 5.41505e-05 15.6542C0.0123455 16.5414 0.353129 17.3924 0.956411 18.0425C1.60595 18.6464 2.45626 18.9874 3.34266 18.9997C10.0325 18.9997 17.1959 18.7256 23.8811 18.9997C24.1649 19.0044 24.4463 18.9474 24.706 18.8327C24.9657 18.7179 25.1974 18.5483 25.3853 18.3353C25.5831 18.1354 25.7392 17.8981 25.8444 17.6373C25.9496 17.3764 26.0018 17.0972 25.9981 16.8159C26.0105 16.5251 25.9626 16.235 25.8575 15.9637C25.7524 15.6923 25.5923 15.4457 25.3874 15.2393C25.1825 15.0329 24.9371 14.8711 24.6667 14.7642C24.3963 14.6573 24.1067 14.6075 23.8161 14.618H23.2126L23.1476 13.935C22.9895 12.8832 22.4637 11.9216 21.6637 11.2214C20.8638 10.5212 19.8416 10.1276 18.779 10.1109C18.8572 10.3307 18.9025 10.5609 18.9136 10.7939C18.9944 11.2451 19.041 11.7018 19.0529 12.16C19.0409 12.5736 18.9944 12.9855 18.9136 13.3914C18.8527 13.8073 18.758 14.2175 18.6304 14.618C18.5763 14.7992 18.4524 14.9514 18.2861 15.0411C18.1198 15.1309 17.9247 15.1509 17.7437 15.0966C17.5627 15.0424 17.4107 14.9184 17.321 14.752C17.2313 14.5856 17.2114 14.3903 17.2655 14.2091C17.3972 13.8843 17.4665 13.5375 17.4698 13.1869C17.6892 11.9228 17.5345 10.622 17.0247 9.44475C16.5149 8.26749 15.6724 7.26509 14.6007 6.56093V6.57022ZM16.2488 6.02193C17.1177 6.75068 17.8165 7.66105 18.2962 8.68905H18.7604C20.164 8.69339 21.5196 9.20114 22.5812 10.1202C22.9108 10.4059 23.2082 10.7269 23.4679 11.0774C23.5376 11.2121 23.6722 11.3515 23.8115 11.542L24.0807 11.4723C24.6413 11.2455 25.1703 10.9472 25.6545 10.5848C24.8251 10.5495 24.0122 10.3405 23.2683 9.97149C21.8621 9.25784 20.7866 8.02696 20.2673 6.53698C19.7479 5.047 19.8252 3.41365 20.4828 1.97943C20.8457 1.22483 21.3573 0.551509 21.987 0C21.3817 0.0196157 20.7833 0.134071 20.2135 0.339198C18.9949 0.747825 17.9572 1.56956 17.2795 2.66247C16.5919 3.64616 16.2313 4.82156 16.2488 6.02193Z" fill="white"/>
</svg>
