<svg width="25" height="20" viewBox="0 0 25 20" fill="none" xmlns="http://www.w3.org/2000/svg">
<path fill-rule="evenodd" clip-rule="evenodd" d="M20.7481 15.074C20.886 15.1047 21.022 15.1432 21.1556 15.1891C21.0405 15.1891 20.9209 15.1316 20.7481 15.1316V15.074ZM10.1888 7.2519C11.2282 7.41735 12.2177 7.81226 13.0855 8.40793C14.136 9.14484 14.9757 10.1434 15.5216 11.3047L15.9247 11.2471C17.1293 11.2463 18.2894 11.7021 19.1713 12.5227C19.5256 12.7939 19.826 13.1289 20.0572 13.5104C19.9996 13.3909 19.8844 13.2181 19.8268 13.103L19.8844 13.1605C20.0751 12.9592 20.2255 12.7231 20.3273 12.4651C20.6069 12.0152 20.8202 11.5275 20.9607 11.0168C21.1594 10.2907 21.2108 9.53225 21.1119 8.78603C21.0131 8.0398 20.7659 7.3209 20.3849 6.67166C19.6209 5.36273 18.3715 4.40783 16.9079 4.0141C16.1907 3.81408 15.4401 3.76238 14.7022 3.86214C13.9643 3.9619 13.2544 4.21104 12.616 4.59434C11.5135 5.1606 10.6507 6.10356 10.1843 7.2519H10.1888ZM15.9468 12.4651C16.0044 12.6379 16.0044 12.8151 16.062 12.9081C16.1265 13.3305 16.165 13.7565 16.1771 14.1837C16.1673 14.5332 16.1287 14.8813 16.062 15.2246C16.0128 15.5785 15.9357 15.928 15.8316 16.2699C15.8163 16.3503 15.7832 16.4263 15.7347 16.4922C15.6862 16.5582 15.6235 16.6125 15.5513 16.6511C15.4792 16.6898 15.3993 16.7118 15.3175 16.7156C15.2357 16.7193 15.1541 16.7048 15.0787 16.6729C15.0009 16.6528 14.9281 16.6169 14.8648 16.5674C14.8016 16.5179 14.7492 16.4558 14.7109 16.3852C14.6727 16.3145 14.6494 16.2368 14.6426 16.1567C14.6358 16.0767 14.6455 15.9961 14.6712 15.92C14.7872 15.639 14.8474 15.3381 14.8483 15.0341C14.9158 14.7433 14.9544 14.4466 14.9635 14.1483C14.9536 13.7973 14.9151 13.4477 14.8483 13.103C14.7946 12.8022 14.7176 12.506 14.618 12.2171C14.5604 12.1595 14.5604 12.1595 14.5604 12.1019C14.153 11.007 13.4006 10.0743 12.4167 9.44438C11.4666 8.7725 10.3336 8.40771 9.17002 8.39908C7.68965 8.38843 6.26206 8.94836 5.18368 9.96261C4.14906 10.9839 3.51294 12.3409 3.38983 13.7895L3.33225 14.3697H2.78302C2.4113 14.3743 2.0445 14.4554 1.70542 14.6078C1.36634 14.7601 1.06223 14.9807 0.811995 15.2556C0.54509 15.5062 0.334725 15.8108 0.194947 16.1492C0.0551699 16.4876 -0.0108015 16.8518 0.00143886 17.2177C0.0251912 17.951 0.313044 18.651 0.811995 19.1888C1.07838 19.4532 1.39529 19.6612 1.74382 19.8005C2.09235 19.9397 2.46536 20.0074 2.8406 19.9993C8.51892 19.9993 14.6047 19.769 20.2831 19.9993C20.5252 20.002 20.765 19.9514 20.9854 19.8512C21.2059 19.7509 21.4016 19.6034 21.5587 19.4191C21.7349 19.2585 21.8733 19.0608 21.9637 18.8401C22.0541 18.6195 22.0942 18.3815 22.0813 18.1435C22.0873 17.8983 22.0441 17.6545 21.9543 17.4262C21.8645 17.198 21.73 16.9901 21.5587 16.8147C21.1892 16.4931 20.7195 16.31 20.2299 16.2965H19.7072L19.6497 15.7605C19.5217 14.8409 19.0692 13.9974 18.374 13.382C17.6898 12.8143 16.8355 12.4915 15.9468 12.4651Z" fill="white"/>
<path d="M23.357 13.2182C23.4706 13.2994 23.549 13.4209 23.5762 13.5579C23.6035 13.6949 23.5775 13.8371 23.5035 13.9557C23.4296 14.0742 23.3133 14.1601 23.1783 14.1959C23.0432 14.2317 22.8997 14.2146 22.7767 14.1483L22.0238 13.7408C21.9594 13.7061 21.9032 13.6581 21.8589 13.5999C21.8145 13.5417 21.7832 13.4747 21.7668 13.4035C21.7505 13.3322 21.7495 13.2582 21.764 13.1866C21.7786 13.1149 21.8082 13.0471 21.851 12.9878C21.8846 12.9226 21.9309 12.8647 21.9871 12.8175C22.0433 12.7703 22.1083 12.7347 22.1784 12.7129C22.2484 12.6911 22.3221 12.6834 22.3952 12.6903C22.4683 12.6972 22.5392 12.7185 22.604 12.7531L23.357 13.2182ZM7.65078 5.45366C7.52113 5.36901 7.42643 5.24038 7.38411 5.09144C7.34179 4.9425 7.3547 4.78328 7.42046 4.64311C7.4995 4.52288 7.6216 4.43751 7.76166 4.40455C7.90172 4.3716 8.04908 4.39357 8.17344 4.46594L8.98399 4.93101C9.09368 5.01199 9.16902 5.13116 9.19513 5.26499C9.22124 5.39881 9.19621 5.53756 9.125 5.65384C9.05379 5.77011 8.94157 5.85546 8.8105 5.89302C8.67943 5.93058 8.53903 5.91763 8.41705 5.85673L7.65078 5.45366ZM10.6627 2.02984C10.5963 1.90691 10.5793 1.76332 10.6151 1.62829C10.6509 1.49327 10.7368 1.37695 10.8553 1.30302C10.9739 1.22909 11.1161 1.20309 11.2531 1.23032C11.3901 1.25755 11.5116 1.33597 11.5928 1.44961L12.0358 2.20258C12.091 2.26521 12.1319 2.3392 12.1554 2.41933C12.179 2.49946 12.1847 2.58379 12.1722 2.66637C12.1597 2.74895 12.1292 2.82778 12.0829 2.8973C12.0366 2.96682 11.9756 3.02535 11.9042 3.06876C11.8329 3.11216 11.7529 3.1394 11.6699 3.14854C11.5868 3.15769 11.5028 3.14851 11.4237 3.12168C11.3446 3.09484 11.2724 3.05098 11.212 2.9932C11.1517 2.93542 11.1048 2.86512 11.0746 2.78724L10.6627 2.02984ZM14.9546 0.581469C14.9479 0.508791 14.9563 0.435511 14.9791 0.366195C15.002 0.29688 15.0389 0.233014 15.0875 0.178578C15.1361 0.124141 15.1954 0.0803018 15.2617 0.0497909C15.328 0.01928 15.3999 0.00275147 15.4729 0.00123555C15.5504 -0.003996 15.6282 0.00742628 15.701 0.0347354C15.7737 0.0620446 15.8398 0.104608 15.8948 0.159568C15.9497 0.214528 15.9923 0.280611 16.0196 0.353381C16.0469 0.42615 16.0583 0.50392 16.0531 0.581469V1.46732C16.0485 1.61812 15.9853 1.76119 15.877 1.8662C15.7687 1.97122 15.6237 2.02991 15.4729 2.02984C15.3292 2.01644 15.1959 1.94917 15.0998 1.84154C15.0036 1.73391 14.9518 1.59389 14.9546 1.44961V0.581469ZM19.4149 1.46732C19.4988 1.36541 19.6165 1.29709 19.7466 1.27487C19.8766 1.25264 20.0104 1.27799 20.1233 1.34628C20.2362 1.41457 20.3208 1.52123 20.3615 1.64675C20.4022 1.77228 20.3964 1.90826 20.3451 2.02984L19.9331 2.78724C19.8491 2.91762 19.7205 3.01292 19.5713 3.05532C19.4221 3.09771 19.2626 3.08429 19.1226 3.01757C18.9981 2.9282 18.9114 2.79561 18.8794 2.64571C18.8475 2.4958 18.8726 2.33938 18.9498 2.20701L19.4149 1.46732ZM22.7767 4.47922C22.8374 4.43992 22.9053 4.41328 22.9765 4.40092C23.0477 4.38855 23.1207 4.39071 23.191 4.40725C23.2613 4.4238 23.3276 4.45441 23.3858 4.49722C23.444 4.54004 23.493 4.59418 23.5297 4.65639C23.5736 4.72032 23.604 4.79251 23.619 4.86856C23.6341 4.94461 23.6336 5.02294 23.6174 5.09877C23.6012 5.1746 23.5698 5.24635 23.525 5.30964C23.4803 5.37294 23.4231 5.42646 23.357 5.46695L22.604 5.87001C22.5438 5.91013 22.4761 5.93755 22.405 5.95058C22.3338 5.96362 22.2608 5.96201 22.1903 5.94584C22.1198 5.92966 22.0534 5.89928 21.995 5.85654C21.9367 5.8138 21.8877 5.75961 21.851 5.69727C21.8052 5.63905 21.773 5.5713 21.7567 5.499C21.7405 5.4267 21.7407 5.35168 21.7573 5.27946C21.7738 5.20724 21.8064 5.13964 21.8525 5.08164C21.8986 5.02364 21.9571 4.97671 22.0238 4.9443L22.7767 4.47922ZM24.2251 8.77118C24.3015 8.76613 24.378 8.77724 24.4498 8.80376C24.5216 8.83028 24.587 8.87164 24.6418 8.92513C24.6965 8.97862 24.7394 9.04304 24.7676 9.1142C24.7957 9.18536 24.8086 9.26166 24.8053 9.33813C24.8038 9.4111 24.7873 9.48298 24.7568 9.54928C24.7263 9.61558 24.6824 9.67489 24.628 9.72351C24.5736 9.77213 24.5097 9.80902 24.4404 9.83187C24.3711 9.85473 24.2978 9.86306 24.2251 9.85635H23.3392C23.195 9.85921 23.0549 9.80737 22.9473 9.71124C22.8397 9.61511 22.7724 9.48182 22.759 9.33813C22.759 9.18424 22.8201 9.03666 22.929 8.92784C23.0378 8.81903 23.1854 8.7579 23.3392 8.7579L24.2251 8.77118Z" fill="white"/>
</svg>
