<svg width="27" height="27" viewBox="0 0 27 27" fill="none" xmlns="http://www.w3.org/2000/svg">
<path d="M13.5 0C10.83 0 8.21987 0.791761 5.99981 2.27516C3.77974 3.75856 2.04941 5.86697 1.02763 8.33377C0.00584924 10.8006 -0.261496 13.515 0.259405 16.1337C0.780305 18.7525 2.06606 21.1579 3.95406 23.0459C5.84207 24.9339 8.24754 26.2197 10.8663 26.7406C13.485 27.2615 16.1994 26.9942 18.6662 25.9724C21.133 24.9506 23.2414 23.2203 24.7248 21.0002C26.2082 18.7801 27 16.17 27 13.5C27 9.91958 25.5777 6.4858 23.0459 3.95406C20.5142 1.42232 17.0804 0 13.5 0ZM20.4891 16.3997C20.477 16.9827 20.3662 17.5595 20.1614 18.1055C19.9808 18.5725 19.7046 18.9966 19.3506 19.3506C18.9966 19.7046 18.5725 19.9808 18.1055 20.1614C17.5595 20.3662 16.9827 20.477 16.3997 20.4891C15.6488 20.5228 15.4097 20.5312 13.5 20.5312C11.5903 20.5312 11.3513 20.5228 10.6003 20.4891C10.0173 20.477 9.44053 20.3662 8.89454 20.1614C8.42755 19.9808 8.00345 19.7046 7.6494 19.3506C7.29536 18.9966 7.01919 18.5725 6.8386 18.1055C6.63379 17.5595 6.52301 16.9827 6.51094 16.3997C6.47719 15.6487 6.46875 15.4097 6.46875 13.5C6.46875 11.5903 6.47719 11.3512 6.51094 10.6003C6.52301 10.0173 6.63379 9.44053 6.8386 8.89453C7.01919 8.42754 7.29536 8.00344 7.6494 7.6494C8.00345 7.29536 8.42755 7.01919 8.89454 6.83859C9.44053 6.63379 10.0173 6.523 10.6003 6.51094C11.3513 6.47719 11.5903 6.46875 13.5 6.46875C15.4097 6.46875 15.6488 6.47719 16.3997 6.51094C16.9827 6.523 17.5595 6.63379 18.1055 6.83859C18.5725 7.01919 18.9966 7.29536 19.3506 7.6494C19.7046 8.00344 19.9808 8.42754 20.1614 8.89453C20.3662 9.44053 20.477 10.0173 20.4891 10.6003C20.5228 11.3512 20.5313 11.5903 20.5313 13.5C20.5313 15.4097 20.5228 15.6487 20.4891 16.3997Z" fill="white"/>
</svg>
