<svg width="39" height="39" viewBox="0 0 39 39" fill="none" xmlns="http://www.w3.org/2000/svg">
<path d="M3.62862 15.6572H2.28767C1.54746 15.6572 0.946716 15.0565 0.946716 14.3163C0.946716 13.5761 1.54746 12.9753 2.28767 12.9753H3.62862C4.36883 12.9753 4.96957 13.5761 4.96957 14.3163C4.96957 15.0565 4.36883 15.6572 3.62862 15.6572ZM14.3562 0.906738C15.0964 0.906738 15.6972 1.50748 15.6972 2.24769V3.58864C15.6972 4.32885 15.0964 4.92959 14.3562 4.92959C13.616 4.92959 13.0153 4.32885 13.0153 3.58864V2.24769C13.0153 1.50748 13.616 0.906738 14.3562 0.906738ZM15.6972 25.0439V26.3848C15.6972 27.1264 15.0964 27.7258 14.3562 27.7258C13.616 27.7258 13.0153 27.1264 13.0153 26.3848V25.0439C13.0153 24.3023 13.616 23.7029 14.3562 23.7029C15.0964 23.7029 15.6972 24.3023 15.6972 25.0439ZM6.77047 4.83439L7.71853 5.78244C8.24284 6.30675 8.24284 7.15423 7.71853 7.67855C7.19421 8.20286 6.34673 8.20286 5.82242 7.67855L4.87437 6.73049C4.35005 6.20618 4.35005 5.3587 4.87437 4.83439C5.39868 4.31008 6.2475 4.31142 6.77047 4.83439ZM23.8381 4.83439C24.3624 5.3587 24.3624 6.20618 23.8381 6.73049L22.8901 7.67855C22.3657 8.20286 21.5183 8.20286 20.994 7.67855C20.4696 7.15423 20.4696 6.30675 20.994 5.78244L21.942 4.83439C22.465 4.31142 23.3138 4.31142 23.8381 4.83439ZM7.71853 20.954C8.24284 21.4783 8.24284 22.3258 7.71853 22.8501L6.77047 23.7981C6.24616 24.3224 5.39868 24.3224 4.87437 23.7981C4.35005 23.2738 4.35005 22.4263 4.87437 21.902L5.82242 20.954C6.34673 20.431 7.19555 20.431 7.71853 20.954ZM14.3562 7.6115C10.6592 7.6115 7.65148 10.6193 7.65148 14.3163C7.65148 18.0133 10.6592 21.021 14.3562 21.021C18.0532 21.021 21.061 18.0133 21.061 14.3163C21.061 10.6193 18.0532 7.6115 14.3562 7.6115ZM25.0839 30.4077C25.0839 31.1492 24.4831 31.7486 23.7429 31.7486C21.525 31.7486 19.72 29.9437 19.72 27.7258C19.72 25.5078 21.525 23.7029 23.7429 23.7029H38.4934V26.3848H23.7429C23.004 26.3848 22.402 26.9856 22.402 27.7258C22.402 28.466 23.004 29.0667 23.7429 29.0667C24.4831 29.0667 25.0839 29.6661 25.0839 30.4077ZM23.7429 16.9982C23.7429 14.7802 25.5478 12.9753 27.7658 12.9753C28.506 12.9753 29.1067 13.5761 29.1067 14.3163C29.1067 15.0565 28.506 15.6572 27.7658 15.6572C27.0269 15.6572 26.4248 16.2593 26.4248 16.9982C26.4248 17.737 27.0269 18.3391 27.7658 18.3391H38.4934V21.021H27.7658C25.5478 21.021 23.7429 19.2161 23.7429 16.9982ZM31.7886 37.1124C31.7886 37.854 31.1879 38.4534 30.4477 38.4534C28.2297 38.4534 26.4248 36.6485 26.4248 34.4305C26.4248 32.2126 28.2297 30.4077 30.4477 30.4077H38.4934V33.0896H30.4477C29.7088 33.0896 29.1067 33.6903 29.1067 34.4305C29.1067 35.1707 29.7088 35.7715 30.4477 35.7715C31.1879 35.7715 31.7886 36.3709 31.7886 37.1124Z" fill="black"/>
</svg>
