<svg width="44" height="39" viewBox="0 0 44 39" fill="none" xmlns="http://www.w3.org/2000/svg">
<path d="M29.0159 30.5687C29.1318 30.3277 29.3288 30.1362 29.5717 30.0285C29.8146 29.9209 30.0875 29.9042 30.3415 29.9813C30.5909 30.092 30.7891 30.2946 30.8956 30.5478C31.0022 30.8011 31.0092 31.0858 30.9152 31.3441L29.6671 34.6413C29.5732 34.8819 29.3909 35.0765 29.1583 35.1845C28.9258 35.2925 28.6609 35.3055 28.419 35.2209C28.2849 35.1793 28.1605 35.1108 28.0533 35.0194C27.9461 34.928 27.8583 34.8156 27.7953 34.6889C27.7323 34.5623 27.6953 34.4241 27.6866 34.2827C27.6779 34.1412 27.6976 33.9995 27.7446 33.8659L29.0159 30.5687ZM22.008 30.5687C22.1162 30.3135 22.3174 30.1102 22.57 30.0008C22.8226 29.8914 23.1071 29.8845 23.3646 29.9813C23.6142 30.0921 23.8129 30.2942 23.9208 30.5471C24.0287 30.8 24.0377 31.0848 23.9461 31.3441L21.6204 37.4529C21.5761 37.5738 21.5087 37.6846 21.4221 37.7792C21.3354 37.8737 21.2311 37.9501 21.1152 38.0039C20.9993 38.0577 20.8741 38.0879 20.7466 38.0928C20.6191 38.0977 20.492 38.0772 20.3723 38.0325C20.2527 37.9878 20.143 37.9197 20.0494 37.8321C19.9559 37.7445 19.8803 37.6392 19.827 37.5221C19.7738 37.405 19.7438 37.2784 19.739 37.1497C19.7341 37.0209 19.7544 36.8924 19.7987 36.7716L22.008 30.5687ZM13.9381 30.5687C13.9824 30.4321 14.054 30.3062 14.1484 30.1987C14.2428 30.0912 14.3581 30.0045 14.4871 29.9438C14.6161 29.8832 14.756 29.85 14.8982 29.8462C15.0404 29.8425 15.1819 29.8683 15.3138 29.922C15.4457 29.9758 15.5653 30.0563 15.6652 30.1587C15.765 30.261 15.843 30.383 15.8943 30.5171C15.9456 30.6512 15.969 30.7944 15.9632 30.938C15.9574 31.0816 15.9225 31.2225 15.8606 31.3519L14.6126 34.6491C14.5187 34.8897 14.3364 35.0844 14.1038 35.1924C13.8712 35.3004 13.6063 35.3134 13.3645 35.2287C13.2297 35.1881 13.1046 35.1202 12.9968 35.029C12.889 34.9378 12.8008 34.8253 12.7377 34.6984C12.6745 34.5715 12.6377 34.4328 12.6295 34.291C12.6213 34.1492 12.6419 34.0072 12.69 33.8738L13.9381 30.5687ZM23.0623 1.94319C24.788 2.63755 26.3667 3.6583 27.7136 4.95063C29.2999 6.57356 30.4546 8.57524 31.0702 10.7697C31.6583 10.7698 32.2423 10.8677 32.7989 11.0595C33.4015 11.1649 33.9845 11.363 34.5276 11.6469C35.5226 12.0968 36.4132 12.7523 37.1422 13.5711C37.8712 14.3898 38.4224 15.3538 38.7603 16.4008C39.1234 17.4392 39.2763 18.5407 39.2097 19.6399C39.1431 20.7392 38.8584 21.8136 38.3727 22.7995C38.3186 22.9225 38.2404 23.0331 38.1429 23.1247C38.0453 23.2162 37.9303 23.2869 37.805 23.3323C37.6796 23.3777 37.5464 23.3969 37.4135 23.3888C37.2805 23.3807 37.1506 23.3454 37.0315 23.2851C36.7981 23.1609 36.6188 22.9533 36.5285 22.7029C36.4382 22.4524 36.4434 22.1769 36.5432 21.9302C36.9189 21.1842 37.1384 20.368 37.1877 19.5325C37.2371 18.697 37.1153 17.8602 36.83 17.0744C36.2721 15.5094 35.1357 14.2237 33.6594 13.4874C33.2268 13.2808 32.775 13.1181 32.3105 13.0018C32.0599 12.9234 31.7972 12.8916 31.5353 12.9078C31.6111 13.484 31.637 14.0658 31.6128 14.6465C31.594 15.3289 31.5293 16.0093 31.419 16.6828C31.3386 17.3701 31.2091 18.0506 31.0314 18.7191C30.9872 18.8528 30.9172 18.9764 30.8257 19.0828C30.7341 19.1892 30.6227 19.2763 30.4978 19.3392C30.3729 19.4021 30.237 19.4396 30.0978 19.4494C29.9586 19.4592 29.8188 19.4413 29.6865 19.3965C29.4192 19.3062 29.1984 19.1123 29.0726 18.8574C29.0104 18.7313 28.9733 18.5939 28.9636 18.4533C28.9538 18.3126 28.9716 18.1714 29.0159 18.0377C29.1994 17.504 29.3292 16.953 29.4035 16.393C29.5031 15.8161 29.5575 15.2321 29.5663 14.6465C29.5419 11.5699 28.3485 8.62039 26.2329 6.40736C24.9641 5.12887 23.4201 4.16394 21.7212 3.58789L21.039 3.39209L19.5971 3.10231C19.1165 3.10231 18.6359 3.00833 18.0467 3.00833C15.1538 3.04243 12.3821 4.18771 10.2947 6.21157C8.13946 8.18662 6.82761 10.93 6.63568 13.8633V14.7327L5.68218 14.8266C4.20643 14.8376 2.79331 15.4306 1.74413 16.4792C0.695066 17.5509 0.106689 18.9974 0.106689 20.5047C0.106689 22.0121 0.695066 23.4586 1.74413 24.5303C2.27415 25.0619 2.90346 25.4817 3.59548 25.7654C4.2875 26.0491 5.02843 26.191 5.7752 26.1829C17.1087 26.1829 28.5353 25.9871 39.8843 26.1829C40.3726 26.1745 40.8541 26.0669 41.3003 25.8664C41.7465 25.6659 42.1481 25.3767 42.4813 25.0159C43.1472 24.3174 43.5194 23.3855 43.52 22.4157C43.5198 21.7083 43.3552 21.0108 43.0394 20.3794C42.6709 19.7773 42.1303 19.3021 41.489 19.0167L40.6363 18.5624L41.1169 17.6931C41.3805 17.127 41.6058 16.5435 41.7913 15.9466C41.8982 15.3256 41.9578 14.6972 41.9696 14.0669C41.9736 13.0202 41.7698 11.9832 41.3704 11.0174C40.971 10.0515 40.3839 9.17638 39.644 8.44365C38.1689 6.94815 36.1678 6.10342 34.078 6.09409H33.0547L31.9927 6.28989L31.8919 5.24825C31.6969 3.9618 31.0469 2.79039 30.0624 1.95102C29.6074 1.49901 29.0683 1.14243 28.4763 0.901826C27.8842 0.661223 27.2509 0.541351 26.6128 0.549118C25.7029 0.521016 24.8042 0.757516 24.0236 1.23049C23.6803 1.42284 23.3581 1.65122 23.0623 1.91186V1.94319Z" fill="black"/>
</svg>
