<svg width="23" height="19" viewBox="0 0 23 19" fill="none" xmlns="http://www.w3.org/2000/svg">
<path d="M22.5397 7.40189C22.6664 7.41332 22.7841 7.47241 22.8694 7.56736C22.9547 7.6623 23.0012 7.7861 22.9997 7.91403C22.9997 7.97458 22.9877 8.03453 22.9646 8.09043C22.9414 8.14632 22.9075 8.19704 22.8647 8.23967C22.8219 8.28229 22.7712 8.31597 22.7154 8.33877C22.6596 8.36156 22.5999 8.37302 22.5397 8.37247H21.7675C21.7073 8.37302 21.6476 8.36156 21.5918 8.33877C21.536 8.31597 21.4853 8.28229 21.4425 8.23967C21.3997 8.19704 21.3658 8.14632 21.3426 8.09043C21.3195 8.03453 21.3075 7.97458 21.3075 7.91403C21.306 7.7861 21.3525 7.6623 21.4378 7.56736C21.5231 7.47241 21.6408 7.41332 21.7675 7.40189H22.5397ZM11.0398 1.65275C11.0052 1.60378 10.9816 1.5478 10.9707 1.48872C10.9598 1.42964 10.9619 1.36888 10.9767 1.31068C10.9916 1.25248 11.0189 1.19824 11.0568 1.15175C11.0946 1.10525 11.1421 1.06763 11.1959 1.04149C11.3041 0.974871 11.4339 0.953559 11.5576 0.98213C11.6812 1.0107 11.7887 1.08688 11.8571 1.19431L12.2104 1.85926C12.2756 1.96832 12.2961 2.09855 12.2678 2.22257C12.2395 2.34658 12.1644 2.45471 12.0584 2.52421C11.9429 2.58197 11.8098 2.59275 11.6866 2.55428C11.5634 2.51582 11.4598 2.43108 11.3972 2.3177L11.0398 1.65275ZM8.49755 4.57275C8.38863 4.51141 8.30839 4.40907 8.2745 4.28824C8.24061 4.16741 8.25584 4.03799 8.31684 3.92845C8.37784 3.81891 8.47961 3.73823 8.59977 3.70415C8.71992 3.67007 8.84862 3.68538 8.95755 3.74673L9.61879 4.10605C9.72319 4.17689 9.79696 4.28495 9.82517 4.40839C9.85338 4.53182 9.83393 4.66143 9.77075 4.771C9.74769 4.82812 9.71221 4.87932 9.66691 4.92085C9.6216 4.96239 9.56763 4.99319 9.50895 5.01102C9.45026 5.02884 9.38835 5.03323 9.32776 5.02385C9.26717 5.01448 9.20944 4.99159 9.15879 4.95685L8.49755 4.57275ZM14.6582 0.442622C14.6624 0.323921 14.7123 0.211515 14.7974 0.129081C14.8824 0.0466475 14.9959 0.00062143 15.1141 0.000698577C15.2376 -0.00607365 15.3588 0.0366073 15.4511 0.119414C15.5435 0.202221 15.5995 0.318422 15.6069 0.442622V1.21083C15.5995 1.33503 15.5435 1.45123 15.4511 1.53403C15.3588 1.61684 15.2376 1.65952 15.1141 1.65275C15.0538 1.6533 14.9941 1.64184 14.9383 1.61905C14.8826 1.59625 14.8318 1.56257 14.789 1.51994C14.7463 1.47732 14.7123 1.4266 14.6892 1.3707C14.666 1.31481 14.6541 1.25486 14.6541 1.19431L14.6582 0.442622ZM18.4244 1.21083C18.4928 1.1034 18.6003 1.02722 18.724 0.998651C18.8476 0.97008 18.9774 0.991392 19.0856 1.05801C19.1363 1.08518 19.1808 1.12274 19.2162 1.16827C19.2515 1.21381 19.277 1.2663 19.2909 1.32235C19.3049 1.3784 19.307 1.43677 19.2971 1.49368C19.2872 1.55059 19.2655 1.60478 19.2335 1.65275L18.8926 2.33422C18.8279 2.4454 18.7241 2.52823 18.6018 2.56644C18.4794 2.60465 18.3473 2.59548 18.2313 2.54073C18.1256 2.47116 18.0501 2.36367 18.0204 2.24014C17.9906 2.11661 18.0088 1.98631 18.0712 1.87578L18.4244 1.21083ZM21.324 3.76738C21.4329 3.70604 21.5616 3.69072 21.6817 3.7248C21.8019 3.75888 21.9037 3.83956 21.9647 3.9491C22.0257 4.05864 22.0409 4.18806 22.007 4.30889C21.9731 4.42972 21.8929 4.53206 21.784 4.5934L21.1186 4.95685C21.0701 4.99257 21.0143 5.01713 20.9553 5.0288C20.8963 5.04047 20.8355 5.03896 20.7771 5.02439C20.7187 5.00981 20.6642 4.98252 20.6175 4.94445C20.5708 4.90637 20.5329 4.85844 20.5067 4.80404C20.4677 4.75141 20.4406 4.69093 20.4271 4.62676C20.4136 4.56258 20.4141 4.49622 20.4285 4.43226C20.443 4.36829 20.471 4.30822 20.5107 4.25619C20.5505 4.20416 20.6009 4.16139 20.6586 4.13083L21.324 3.76738ZM11.0891 6.99301H11.0357C10.8038 6.93056 10.5653 6.8959 10.3252 6.88975C10.0536 6.84651 9.77854 6.82991 9.50379 6.84019C7.97049 6.8485 6.49663 7.43767 5.37612 8.49022C4.2556 9.54277 3.57076 10.9814 3.45816 12.5191V13.0313H2.95299C2.17206 13.0377 1.42409 13.3486 0.866594 13.8986C0.325165 14.4848 0.0167621 15.2505 0 16.0504C0.00265935 16.4428 0.0826439 16.8308 0.23533 17.192C0.388016 17.5531 0.610374 17.8803 0.889551 18.1545C1.16873 18.4287 1.49919 18.6446 1.86182 18.7896C2.22446 18.9346 2.61208 19.0059 3.00228 18.9993C9.00683 18.9993 15.0607 18.9002 21.0734 18.9993C21.3335 19.0067 21.592 18.9557 21.83 18.8499C22.068 18.7442 22.2796 18.5864 22.4493 18.388C22.6268 18.2084 22.767 17.995 22.8615 17.7603C22.956 17.5255 23.0029 17.2742 22.9997 17.021C23.0062 16.6629 22.9183 16.3095 22.745 15.9967C22.5653 15.6557 22.2757 15.3863 21.9236 15.2326L21.4636 14.9765L21.7183 14.514C21.8586 14.2157 21.978 13.908 22.0756 13.593C22.1341 13.2725 22.1684 12.948 22.1782 12.6224C22.1809 12.0697 22.0732 11.5221 21.8616 11.012C21.6499 10.5019 21.3386 10.0397 20.9461 9.65281C20.1649 8.86378 19.1045 8.41824 17.9972 8.41377H17.4551L16.8924 8.51703L16.839 7.96359C16.7232 7.28957 16.3811 6.67586 15.8698 6.2248C15.3771 5.75255 14.7185 5.49566 14.038 5.51029C13.5596 5.52022 13.09 5.64182 12.6662 5.86548C12.4853 5.96836 12.3147 6.0887 12.157 6.2248C13.3486 6.72029 14.3947 7.51355 15.1962 8.52942C16.1489 9.79636 16.6676 11.3396 16.6748 12.928C16.6652 13.2879 16.6309 13.6467 16.5721 14.0018C16.5298 14.3644 16.4612 14.7233 16.3667 15.0757C16.3059 15.2073 16.2026 15.3144 16.0736 15.3796C15.9447 15.4448 15.7976 15.4643 15.6562 15.435C15.532 15.3793 15.4296 15.2839 15.365 15.1637C15.3004 15.0434 15.2771 14.905 15.2989 14.77C15.3907 14.4688 15.4593 14.1609 15.5042 13.849C15.5627 13.5452 15.5971 13.2373 15.6069 12.928C15.6096 11.5804 15.1611 10.271 14.3337 9.21089C13.5137 8.14402 12.3773 7.36725 11.0891 6.99301ZM10.7318 5.81592C10.8118 5.85173 10.8989 5.86868 10.9864 5.86548C11.3413 5.5012 11.7337 5.17585 12.157 4.8949C12.7364 4.587 13.3826 4.42808 14.038 4.43233C14.9782 4.42547 15.8867 4.77325 16.5844 5.40704C17.1724 5.92298 17.6002 6.59834 17.8165 7.35233H18.0219C18.7291 7.32635 19.4325 7.46783 20.0754 7.76534C19.9609 6.97196 19.6627 6.21669 19.2049 5.56033C18.7472 4.90397 18.1425 4.36486 17.4397 3.98638C16.737 3.6079 15.9556 3.40062 15.1586 3.38124C14.3616 3.36185 13.5712 3.53089 12.8511 3.87476C12.0078 4.3417 11.2913 5.00968 10.7647 5.82005L10.7318 5.81592Z" fill="black"/>
</svg>
