<svg width="19" height="22" viewBox="0 0 19 22" fill="none" xmlns="http://www.w3.org/2000/svg">
<path d="M13.2569 16.4177C13.4508 19.2116 11.3587 21.3573 9.01717 21.3573C6.67561 21.3573 4.60937 19.0565 4.77741 16.4177C4.95078 13.6951 9.01717 8.50879 9.01717 8.50879C9.01717 8.50879 13.0681 13.6961 13.2569 16.4177Z" fill="black"/>
<path d="M6.06018 16.4177C6.19005 14.3783 8.50416 10.9567 9.65744 9.3678C9.27236 8.83551 9.01723 8.50879 9.01723 8.50879C9.01723 8.50879 4.95084 13.6951 4.77747 16.4177C4.60943 19.0565 6.67568 21.3573 9.01723 21.3573C9.23596 21.3573 9.45429 21.3386 9.66986 21.3016C7.60132 20.9361 5.90742 18.8167 6.06018 16.4177Z" fill="black"/>
<path d="M5.55111 7.35235C5.6779 9.17934 4.30985 10.5825 2.77869 10.5825C1.24752 10.5825 -0.103618 9.07791 0.00626838 7.35235C0.119635 5.57202 2.77869 2.18066 2.77869 2.18066C2.77869 2.18066 5.4276 5.5727 5.55111 7.35235Z" fill="black"/>
<path d="M1.28898 7.35235C1.36621 6.13968 2.62436 4.17987 3.41895 3.05318C3.04812 2.52577 2.77869 2.18066 2.77869 2.18066C2.77869 2.18066 0.119638 5.57202 0.00626788 7.35235C-0.103613 9.0779 1.24752 10.5825 2.77869 10.5825C2.99882 10.582 3.21797 10.5529 3.4306 10.496C2.17973 10.1544 1.19454 8.8355 1.28898 7.35235Z" fill="black"/>
<path d="M18.9898 6.47448C19.1485 8.7617 17.4358 10.5183 15.5189 10.5183C13.6021 10.5183 11.9106 8.63472 12.0481 6.47448C12.1901 4.24567 15.5189 0 15.5189 0C15.5189 0 18.8351 4.24652 18.9898 6.47448Z" fill="black"/>
<path d="M13.3308 6.47448C13.4329 4.87113 15.1843 2.22411 16.1592 0.864696C15.7801 0.334416 15.5189 0 15.5189 0C15.5189 0 12.1901 4.24568 12.0481 6.47448C11.9106 8.63472 13.6021 10.5183 15.5189 10.5183C15.7379 10.5181 15.9563 10.4952 16.1705 10.45C14.53 10.0942 13.2086 8.39362 13.3308 6.47448Z" fill="black"/>
</svg>
